<svg width="10" height="17" viewBox="0 0 10 17" fill="none" xmlns="http://www.w3.org/2000/svg">
<path d="M8.78314 0.211465L6.78403 0.208252C4.53811 0.208252 3.08669 1.69991 3.08669 4.00866V5.7609H1.07668C0.902995 5.7609 0.762344 5.90195 0.762344 6.07594V8.61474C0.762344 8.78872 0.903156 8.92962 1.07668 8.92962H3.08669V15.3358C3.08669 15.5098 3.22734 15.6507 3.40103 15.6507H6.02352C6.19721 15.6507 6.33786 15.5096 6.33786 15.3358V8.92962H8.68803C8.86172 8.92962 9.00237 8.78872 9.00237 8.61474L9.00333 6.07594C9.00333 5.9924 8.97014 5.91239 8.91128 5.85327C8.85242 5.79415 8.77223 5.7609 8.68884 5.7609H6.33786V4.2755C6.33786 3.56156 6.5077 3.19913 7.43613 3.19913L8.78282 3.19865C8.95634 3.19865 9.097 3.05759 9.097 2.88377V0.526345C9.097 0.352679 8.9565 0.211786 8.78314 0.211465Z" fill="white"/>
</svg>
